<svg width="192" height="192" viewBox="0 0 192 192" fill="none" xmlns="http://www.w3.org/2000/svg">
<rect width="192" height="192" fill="#1A2BC3"/>
<path d="M80.8159 62.2632C81.345 62.792 81.6208 63.5195 81.5759 64.2694C81.5278 65.0193 81.1719 65.7084 80.5786 66.1699L79.331 67.1473C78.1508 68.0767 76.7301 68.5574 75.3094 68.5574C74.0618 68.5574 72.8143 68.1921 71.7174 67.455C69.8638 66.1987 68.0678 64.7117 66.4001 63.042C64.7293 61.3723 63.2508 59.5776 62.0033 57.7188C60.4382 55.389 60.5921 52.338 62.3785 50.1395L63.3759 48.9121C63.8473 48.3352 64.5465 47.9827 65.2873 47.9442C66.0249 47.9058 66.7657 48.1846 67.2949 48.7102L69.1678 50.5818C69.6681 51.0817 69.9343 51.7419 69.9343 52.4438C69.9343 53.1456 69.6553 53.8058 69.1582 54.2961L68.6579 54.7865C68.2346 55.1999 68.1865 55.8505 68.5424 56.3408C69.8285 58.1259 71.3839 59.6802 73.1606 60.9749C73.6513 61.3306 74.312 61.2826 74.7353 60.8691L75.2356 60.3788C76.2715 59.3629 77.9423 59.3725 78.9622 60.398L80.8351 62.2696H80.8255L80.8159 62.2632ZM79.9051 47.9314H76.7942C76.3998 47.9314 76.0726 48.2583 76.0726 48.6525C76.0726 49.0467 76.3998 49.3736 76.7942 49.3736H79.1258L74.2478 54.2481C73.9688 54.5269 73.9688 54.9852 74.2478 55.264C74.3921 55.4082 74.5749 55.4755 74.7577 55.4755C74.9405 55.4755 75.1233 55.4082 75.2677 55.264L80.1456 50.3895V52.7194C80.1456 53.1136 80.4727 53.4405 80.8672 53.4405C81.2617 53.4405 81.5888 53.1136 81.5888 52.7194V49.6107C81.5888 48.691 80.8287 47.9314 79.9083 47.9314H79.9051Z" fill="white"/>
<path d="M102.165 36.0064C96.63 36.0064 91.3287 36.6249 86.3225 37.8171L92.3903 60.4333C95.453 59.5936 98.721 59.1545 102.169 59.1545C113.169 59.1545 123.829 64.0707 130.426 72.1756L149.024 56.7862C137.696 43.4383 120.94 36.0064 102.165 36.0064Z" fill="white"/>
<path d="M150.374 134.371C139.39 148.232 122.809 156 102.166 156C67.3304 156 41.6194 131.163 41.6194 95.8334C41.6194 92.0229 41.9144 88.3438 42.5013 84.8121C43.3255 79.7357 44.7399 74.9542 46.6545 70.5092H76.3968C74.7612 72.4224 73.334 74.5408 72.157 76.8642C69.3733 82.2355 67.8435 88.6354 67.8435 95.8302C67.8435 118.312 81.8744 132.852 102.166 132.852C115.019 132.852 123.473 128.452 132.116 118.815L150.374 134.368V134.371Z" fill="white"/>
</svg>
